[img]http://img11.imageshack.us/img11/700/hangoverpart2dvdcover.jpg[/img]
[code]
The.Hangover.Part.II.2011.DVDSCR.XVID.AC3.HQ.Hive-CM8


Thx Hive

CM8 Doing It Right The First Time 


Source: LTW

thx

Encode:

version 21,  but maybe the best one
that pre dvd-r, looks more like a upscaled LTW file with custom menu. so i used the ltw file itself, looks much better and clearer to begin with
removed that noise, fixed brightness,sharpness,and rgb colours.
Everything now is like it should be.
looks very nice and will do till the bluray comes around
enjoy

Video: 672x288 @bitrate 1800 2pass
Audio: English AC3 2.0 Stereo
Sample: yes included

 
http://www.imdb.com/title/tt1411697/


General
Complete name                  : The.Hangover.Part.II.2011.DVDSCR.XVID.AC3.HQ.Hive-CM8.avi
Format                         : AVI
Format/Info                    : Audio Video Interleave
File size                      : 1.41 GiB
Duration                       : 1h 37mn
Overall bit rate               : 2 065 Kbps
Writing application            : Nandub v1.0rc2
Writing library                : Nandub build 1853/release

Video
ID                             : 0
Format                         : MPEG-4 Visual
Format profile                 : Advanced Simple@L5
Format settings, BVOP          : 2
Format settings, QPel          : Yes
Format settings, GMC           : No warppoints
Format settings, Matrix        : Default (H.263)
Muxing mode                    : Packed bitstream
Codec ID                       : XVID
Codec ID/Hint                  : XviD
Duration                       : 1h 37mn
Bit rate                       : 1 797 Kbps
Width                          : 672 pixels
Height                         : 288 pixels
Display aspect ratio           : 2.35:1
Frame rate                     : 29.970 fps
Color space                    : YUV
Chroma subsampling             : 4:2:0
Bit depth                      : 8 bits
Scan type                      : Progressive
Compression mode               : Lossy
Bits/(Pixel*Frame)             : 0.310
Stream size                    : 1.23 GiB (87%)
Writing library                : XviD 1.2.1 (UTC 2008-12-04)

Audio
ID                             : 1
Format                         : AC-3
Format/Info                    : Audio Coding 3
Mode extension                 : CM (complete main)
Codec ID                       : 2000
Duration                       : 1h 37mn
Bit rate mode                  : Constant
Bit rate                       : 256 Kbps
Channel(s)                     : 2 channels
Channel positions              : Front: L R
Sampling rate                  : 48.0 KHz
Bit depth                      : 16 bits
Compression mode               : Lossy
Delay relative to video        : 100ms
Stream size                    : 179 MiB (12%)
Alignment                      : Split accross interleaves
Interleave, duration           : 33 ms (1.00 video frame)
Interleave, preload duration   : 500 ms


Plot:

Right after the bachelor party in Las Vegas, Phil, Stu, Alan, and Doug jet to Thailand 
for Stu's wedding. Stu's plan for a subdued pre-wedding brunch, however, goes seriously awry. 


Cast:

Bradley Cooper  ...    Phil
Ed Helms	        ...        Stu
Zach Galifianakis	... Alan
Justin Bartha	... Doug
Ken Jeong	... Mr. Chow
Paul Giamatti	... Kingsley
Mike Tyson	... Himself
[/code]
Screens: 
http://img444.imageshack.us/img444/4813/98997616.png 
http://img257.imageshack.us/img257/7716/66058308.png 
http://img338.imageshack.us/img338/8721/64668545.png 
http://img829.imageshack.us/img829/7874/78386529.png
